<?xml version="1.0" encoding="utf-8"?>
<!-- Generator: Adobe Illustrator 24.0.1, SVG Export Plug-In . SVG Version: 6.00 Build 0)  -->
<svg version="1.1" id="Layer_1" xmlns="http://www.w3.org/2000/svg" xmlns:xlink="http://www.w3.org/1999/xlink" x="0px" y="0px"
	 viewBox="0 0 100 30" style="enable-background:new 0 0 100 30;" xml:space="preserve">
<style type="text/css">
	.st0{fill:#7F7F7F;}
</style>
<path class="st0" d="M4.36,6.16h12.62c0.42,0,0.76,0.34,0.76,0.76v2.17c0,0.42-0.34,0.76-0.76,0.76H8.44
	c-0.42,0-0.76,0.34-0.76,0.76v2.49c0,0.42,0.34,0.76,0.76,0.76h7.34c0.42,0,0.76,0.34,0.76,0.76v2.17c0,0.42-0.34,0.76-0.76,0.76
	H8.44c-0.42,0-0.76,0.34-0.76,0.76v5.67c0,0.42-0.34,0.76-0.76,0.76H4.36c-0.42,0-0.76-0.34-0.76-0.76V6.92
	C3.6,6.5,3.94,6.16,4.36,6.16z"/>
<path class="st0" d="M52.22,25.04c-1.36,0-2.62-0.25-3.79-0.74c-1.17-0.49-2.17-1.17-3.02-2.03c-0.85-0.86-1.51-1.87-1.99-3.04
	c-0.48-1.17-0.72-2.41-0.72-3.74v-0.05c0-1.33,0.24-2.57,0.72-3.72c0.48-1.16,1.14-2.17,1.99-3.05c0.85-0.87,1.86-1.56,3.05-2.07
	c1.18-0.5,2.49-0.76,3.92-0.76c0.87,0,1.66,0.07,2.37,0.21c0.72,0.14,1.37,0.34,1.95,0.58c0.58,0.25,1.12,0.55,1.62,0.9
	c0.28,0.2,0.56,0.42,0.82,0.64c0.32,0.28,0.36,0.75,0.08,1.07l-1.63,1.88c-0.26,0.3-0.72,0.35-1.04,0.1
	c-0.55-0.44-1.1-0.79-1.66-1.07c-0.75-0.37-1.59-0.56-2.53-0.56c-0.78,0-1.5,0.15-2.16,0.45c-0.66,0.3-1.23,0.72-1.71,1.25
	c-0.48,0.53-0.85,1.14-1.11,1.84c-0.27,0.7-0.4,1.44-0.4,2.24v0.05c0,0.8,0.13,1.55,0.4,2.25c0.27,0.71,0.63,1.33,1.1,1.86
	c0.47,0.53,1.03,0.95,1.7,1.26c0.66,0.31,1.39,0.46,2.19,0.46c1.06,0,1.96-0.19,2.69-0.58c0.56-0.3,1.12-0.68,1.67-1.14
	c0.3-0.25,0.74-0.22,1.01,0.05l1.57,1.59c0.3,0.3,0.29,0.79-0.02,1.08c-0.31,0.3-0.62,0.57-0.94,0.83
	c-0.51,0.41-1.07,0.76-1.68,1.05c-0.61,0.29-1.28,0.51-2,0.66C53.93,24.96,53.12,25.04,52.22,25.04z"/>
<path class="st0" d="M70.83,25.01c-2.49,0-4.45-0.69-5.88-2.07c-1.43-1.38-2.15-3.44-2.15-6.18V6.92c0-0.42,0.34-0.76,0.76-0.76
	h2.57c0.42,0,0.76,0.34,0.76,0.76v9.74c0,1.52,0.35,2.66,1.06,3.43c0.71,0.77,1.69,1.15,2.94,1.15c1.25,0,2.24-0.37,2.94-1.11
	c0.71-0.74,1.06-1.86,1.06-3.34V6.92c0-0.42,0.34-0.76,0.76-0.76h2.57c0.42,0,0.76,0.34,0.76,0.76v9.71c0,1.41-0.19,2.64-0.57,3.68
	c-0.38,1.04-0.92,1.91-1.63,2.61c-0.71,0.7-1.56,1.22-2.57,1.56C73.19,24.84,72.06,25.01,70.83,25.01z"/>
<path class="st0" d="M89.75,24.98c-1.41,0-2.8-0.24-4.16-0.73c-1.12-0.4-2.16-0.98-3.11-1.73c-0.34-0.27-0.39-0.75-0.12-1.08
	l1.47-1.76c0.26-0.31,0.71-0.36,1.03-0.12c0.67,0.49,1.35,0.89,2.04,1.21c0.89,0.41,1.87,0.61,2.93,0.61c0.85,0,1.51-0.15,1.97-0.46
	c0.47-0.31,0.7-0.74,0.7-1.29v-0.05c0-0.27-0.05-0.5-0.15-0.7c-0.1-0.2-0.28-0.39-0.56-0.57c-0.27-0.18-0.66-0.35-1.14-0.53
	c-0.49-0.18-1.12-0.36-1.9-0.56c-0.94-0.23-1.79-0.49-2.55-0.77c-0.76-0.28-1.41-0.63-1.94-1.05c-0.53-0.42-0.94-0.93-1.24-1.55
	c-0.29-0.62-0.44-1.39-0.44-2.31v-0.05c0-0.85,0.16-1.61,0.47-2.29c0.32-0.68,0.76-1.27,1.33-1.76c0.57-0.49,1.25-0.87,2.04-1.14
	c0.79-0.27,1.67-0.4,2.62-0.4c1.36,0,2.61,0.2,3.75,0.61c0.9,0.32,1.74,0.75,2.53,1.29c0.35,0.24,0.44,0.71,0.2,1.06l-1.29,1.87
	c-0.23,0.33-0.68,0.42-1.03,0.21c-0.62-0.38-1.23-0.7-1.83-0.94c-0.8-0.33-1.59-0.49-2.39-0.49c-0.8,0-1.39,0.15-1.79,0.46
	c-0.4,0.31-0.6,0.69-0.6,1.15v0.05c0,0.3,0.06,0.56,0.17,0.78c0.12,0.22,0.32,0.42,0.62,0.6c0.3,0.18,0.71,0.34,1.24,0.5
	c0.52,0.16,1.18,0.34,1.98,0.56c0.94,0.25,1.78,0.53,2.51,0.83c0.74,0.31,1.36,0.68,1.86,1.11c0.51,0.43,0.89,0.94,1.14,1.52
	c0.26,0.58,0.39,1.28,0.39,2.09v0.05c0,0.92-0.17,1.74-0.5,2.45c-0.33,0.72-0.8,1.32-1.4,1.8c-0.6,0.49-1.31,0.86-2.14,1.11
	C91.68,24.86,90.76,24.98,89.75,24.98z"/>
<path class="st0" d="M40.55,14.03h-1.08c-0.12-0.8-0.34-1.58-0.64-2.3c-0.73-1.71-1.93-3.17-3.45-4.2C34.22,6.75,32.88,6.22,31.44,6
	V4.93c0-0.42-0.34-0.76-0.76-0.76h-1.31c-0.42,0-0.76,0.34-0.76,0.76V6c-0.8,0.12-1.58,0.34-2.3,0.65c-1.71,0.73-3.17,1.93-4.2,3.45
	c-0.78,1.15-1.31,2.49-1.53,3.92h-1.08c-0.42,0-0.76,0.34-0.76,0.76v1.31c0,0.42,0.34,0.76,0.76,0.76h1.08
	c0.12,0.8,0.34,1.58,0.65,2.3c0.73,1.71,1.93,3.17,3.45,4.2c1.15,0.78,2.49,1.31,3.92,1.53v1.08c0,0.42,0.34,0.76,0.76,0.76h1.31
	c0.42,0,0.76-0.34,0.76-0.76v-1.08c0.8-0.12,1.58-0.34,2.3-0.65c1.71-0.73,3.17-1.93,4.19-3.45c0.78-1.15,1.31-2.49,1.53-3.92h1.08
	c0.42,0,0.76-0.34,0.76-0.76v-1.31C41.3,14.37,40.96,14.03,40.55,14.03z M35.36,17.69c-0.44,1.03-1.17,1.92-2.09,2.54
	c-0.55,0.37-1.16,0.65-1.82,0.81v-0.8c0-0.42-0.34-0.76-0.76-0.76h-1.31c-0.42,0-0.76,0.34-0.76,0.76v0.8
	c-0.29-0.07-0.57-0.16-0.84-0.28c-1.03-0.44-1.92-1.17-2.54-2.09c-0.37-0.55-0.65-1.16-0.81-1.82h0.8c0.42,0,0.76-0.34,0.76-0.76
	v-1.31c0-0.42-0.34-0.76-0.76-0.76h-0.8c0.07-0.29,0.16-0.57,0.28-0.84c0.44-1.03,1.17-1.92,2.1-2.54c0.55-0.37,1.16-0.65,1.82-0.81
	v0.8c0,0.42,0.34,0.76,0.76,0.76h1.31c0.42,0,0.76-0.34,0.76-0.76v-0.8c0.29,0.07,0.57,0.16,0.84,0.28
	c1.03,0.44,1.92,1.17,2.54,2.09c0.37,0.55,0.65,1.16,0.81,1.82h-0.8c-0.42,0-0.76,0.34-0.76,0.76v1.31c0,0.42,0.34,0.76,0.76,0.76
	h0.8C35.56,17.14,35.47,17.42,35.36,17.69z"/>
</svg>
