<svg width="388" height="248" viewBox="0 0 388 248" fill="none" xmlns="http://www.w3.org/2000/svg">
<g filter="url(#filter0_d)">
<rect x="24" y="20" width="340" height="200" rx="25" fill="white"/>
</g>
<path d="M131.837 108.706C134.117 108.706 135.852 109.365 137.043 110.682C138.259 111.974 138.867 113.912 138.867 116.496V124.666C138.867 127.25 138.259 129.201 137.043 130.518C135.852 131.81 134.117 132.456 131.837 132.456C129.557 132.456 127.809 131.81 126.593 130.518C125.402 129.201 124.807 127.25 124.807 124.666V116.496C124.807 113.912 125.402 111.974 126.593 110.682C127.809 109.365 129.557 108.706 131.837 108.706ZM131.837 111.442C129.304 111.442 128.037 113.025 128.037 116.192V124.97C128.037 128.137 129.304 129.72 131.837 129.72C134.37 129.72 135.637 128.137 135.637 124.97V116.192C135.637 113.025 134.37 111.442 131.837 111.442ZM150.837 108.706C153.117 108.706 154.852 109.365 156.043 110.682C157.259 111.974 157.867 113.912 157.867 116.496V124.666C157.867 127.25 157.259 129.201 156.043 130.518C154.852 131.81 153.117 132.456 150.837 132.456C148.557 132.456 146.809 131.81 145.593 130.518C144.402 129.201 143.807 127.25 143.807 124.666V116.496C143.807 113.912 144.402 111.974 145.593 110.682C146.809 109.365 148.557 108.706 150.837 108.706ZM150.837 111.442C148.304 111.442 147.037 113.025 147.037 116.192V124.97C147.037 128.137 148.304 129.72 150.837 129.72C153.37 129.72 154.637 128.137 154.637 124.97V116.192C154.637 113.025 153.37 111.442 150.837 111.442ZM171.383 127.82C172.827 127.82 173.549 128.415 173.549 129.606V130.708C173.549 131.265 173.359 131.696 172.979 132C172.624 132.304 172.092 132.456 171.383 132.456C170.699 132.456 170.167 132.304 169.787 132C169.432 131.696 169.255 131.265 169.255 130.708V129.606C169.255 129.023 169.432 128.58 169.787 128.276C170.167 127.972 170.699 127.82 171.383 127.82ZM171.383 113.836C172.827 113.836 173.549 114.431 173.549 115.622V116.724C173.549 117.281 173.359 117.712 172.979 118.016C172.624 118.32 172.092 118.472 171.383 118.472C170.699 118.472 170.167 118.32 169.787 118.016C169.432 117.712 169.255 117.281 169.255 116.724V115.622C169.255 115.039 169.432 114.596 169.787 114.292C170.167 113.988 170.699 113.836 171.383 113.836ZM191.88 108.706C194.16 108.706 195.895 109.365 197.086 110.682C198.302 111.974 198.91 113.912 198.91 116.496V124.666C198.91 127.25 198.302 129.201 197.086 130.518C195.895 131.81 194.16 132.456 191.88 132.456C189.6 132.456 187.852 131.81 186.636 130.518C185.445 129.201 184.85 127.25 184.85 124.666V116.496C184.85 113.912 185.445 111.974 186.636 110.682C187.852 109.365 189.6 108.706 191.88 108.706ZM191.88 111.442C189.347 111.442 188.08 113.025 188.08 116.192V124.97C188.08 128.137 189.347 129.72 191.88 129.72C194.413 129.72 195.68 128.137 195.68 124.97V116.192C195.68 113.025 194.413 111.442 191.88 111.442ZM207.118 108.706C209.575 108.706 211.387 109.2 212.552 110.188C213.717 111.176 214.3 112.658 214.3 114.634V115.47C214.3 116.661 214.097 117.763 213.692 118.776C213.287 119.789 212.438 121.056 211.146 122.576L205.636 129.226H214.566V132H201.76V129.53L209.36 119.916C210.069 119.029 210.525 118.307 210.728 117.75C210.956 117.167 211.07 116.42 211.07 115.508V114.824C211.07 113.608 210.753 112.747 210.12 112.24C209.512 111.708 208.511 111.442 207.118 111.442C206.434 111.442 205.649 111.531 204.762 111.708C203.875 111.86 203.065 112.05 202.33 112.278V109.504C204.281 108.972 205.877 108.706 207.118 108.706ZM227.121 127.82C228.565 127.82 229.287 128.415 229.287 129.606V130.708C229.287 131.265 229.097 131.696 228.717 132C228.363 132.304 227.831 132.456 227.121 132.456C226.437 132.456 225.905 132.304 225.525 132C225.171 131.696 224.993 131.265 224.993 130.708V129.606C224.993 129.023 225.171 128.58 225.525 128.276C225.905 127.972 226.437 127.82 227.121 127.82ZM227.121 113.836C228.565 113.836 229.287 114.431 229.287 115.622V116.724C229.287 117.281 229.097 117.712 228.717 118.016C228.363 118.32 227.831 118.472 227.121 118.472C226.437 118.472 225.905 118.32 225.525 118.016C225.171 117.712 224.993 117.281 224.993 116.724V115.622C224.993 115.039 225.171 114.596 225.525 114.292C225.905 113.988 226.437 113.836 227.121 113.836ZM243.856 108.706C246.313 108.706 248.125 109.2 249.29 110.188C250.455 111.176 251.038 112.658 251.038 114.634V115.47C251.038 116.661 250.835 117.763 250.43 118.776C250.025 119.789 249.176 121.056 247.884 122.576L242.374 129.226H251.304V132H238.498V129.53L246.098 119.916C246.807 119.029 247.263 118.307 247.466 117.75C247.694 117.167 247.808 116.42 247.808 115.508V114.824C247.808 113.608 247.491 112.747 246.858 112.24C246.25 111.708 245.249 111.442 243.856 111.442C243.172 111.442 242.387 111.531 241.5 111.708C240.613 111.86 239.803 112.05 239.068 112.278V109.504C241.019 108.972 242.615 108.706 243.856 108.706ZM266.954 111.746C263.838 111.797 261.583 112.316 260.19 113.304C258.822 114.267 258.138 115.711 258.138 117.636V119.764C259.937 118.067 261.634 117.218 263.23 117.218C265.054 117.218 266.46 117.788 267.448 118.928C268.461 120.043 268.968 121.715 268.968 123.944V125.426C268.968 127.731 268.36 129.479 267.144 130.67C265.953 131.861 264.205 132.456 261.9 132.456C259.645 132.456 257.91 131.835 256.694 130.594C255.503 129.327 254.908 127.541 254.908 125.236V118.244C254.908 115.255 255.909 112.975 257.91 111.404C259.937 109.833 262.951 109.023 266.954 108.972V111.746ZM262.66 120.03C261.444 120.03 259.937 120.853 258.138 122.5V125.426C258.138 128.289 259.392 129.72 261.9 129.72C264.459 129.72 265.738 128.352 265.738 125.616V123.83C265.738 122.589 265.459 121.651 264.902 121.018C264.37 120.359 263.623 120.03 262.66 120.03Z" fill="black"/>
<path d="M24 45C24 31.1929 35.1929 20 49 20H339C352.807 20 364 31.1929 364 45V68H24V45Z" fill="#30A0F5"/>
<path d="M174.395 34.35V36.66H168.695V54H166.145V36.66H160.445V34.35H174.395ZM179.957 39.36V54H177.407V39.36H179.957ZM178.667 33.45C179.207 33.45 179.617 33.57 179.897 33.81C180.197 34.05 180.347 34.39 180.347 34.83V35.7C180.347 36.14 180.197 36.48 179.897 36.72C179.617 36.94 179.207 37.05 178.667 37.05C178.147 37.05 177.737 36.94 177.437 36.72C177.157 36.48 177.017 36.14 177.017 35.7V34.83C177.017 34.39 177.157 34.05 177.437 33.81C177.737 33.57 178.147 33.45 178.667 33.45ZM198.215 39C199.495 39 200.475 39.44 201.155 40.32C201.835 41.18 202.175 42.41 202.175 44.01V54H199.625V44.37C199.625 42.37 198.985 41.37 197.705 41.37C197.145 41.37 196.565 41.59 195.965 42.03C195.385 42.47 194.875 43.07 194.435 43.83V54H191.885V44.37C191.885 42.37 191.245 41.37 189.965 41.37C189.405 41.37 188.825 41.59 188.225 42.03C187.645 42.47 187.135 43.07 186.695 43.83V54H184.145V39.36H186.545V41.55C187.065 40.73 187.665 40.1 188.345 39.66C189.025 39.22 189.735 39 190.475 39C191.395 39 192.165 39.24 192.785 39.72C193.405 40.18 193.855 40.86 194.135 41.76C194.675 40.86 195.295 40.18 195.995 39.72C196.695 39.24 197.435 39 198.215 39ZM211.181 39C212.861 39 214.141 39.46 215.021 40.38C215.901 41.3 216.341 42.63 216.341 44.37V47.46H208.631V49.23C208.631 50.25 208.871 50.99 209.351 51.45C209.851 51.89 210.631 52.11 211.691 52.11C212.731 52.11 214.031 51.95 215.591 51.63L215.651 53.85C213.791 54.19 212.461 54.36 211.661 54.36C209.681 54.36 208.251 53.93 207.371 53.07C206.511 52.21 206.081 50.88 206.081 49.08V44.37C206.081 42.63 206.501 41.3 207.341 40.38C208.201 39.46 209.481 39 211.181 39ZM211.181 41.13C210.401 41.13 209.781 41.38 209.321 41.88C208.861 42.36 208.631 43.06 208.631 43.98V45.42H213.791V44.07C213.791 43.11 213.551 42.38 213.071 41.88C212.611 41.38 211.981 41.13 211.181 41.13ZM226.189 39C226.469 39 226.689 39.02 226.849 39.06V41.94C226.549 41.88 226.159 41.85 225.679 41.85C224.279 41.85 223.169 42.55 222.349 43.95V54H219.799V39.36H222.199V41.55C222.739 40.73 223.339 40.1 223.999 39.66C224.679 39.22 225.409 39 226.189 39Z" fill="white"/>
<g filter="url(#filter1_d)">
<rect x="97" y="160" width="100" height="40" rx="20" fill="#30A0F5"/>
</g>
<path d="M143.25 190.453C144.469 190.453 145.5 189.469 145.5 188.203V171.703C145.5 170.484 144.469 169.453 143.25 169.453H138.75C137.484 169.453 136.5 170.484 136.5 171.703V188.203C136.5 189.469 137.484 190.453 138.75 190.453H143.25ZM157.5 188.203V171.703C157.5 170.484 156.469 169.453 155.25 169.453H150.75C149.484 169.453 148.5 170.484 148.5 171.703V188.203C148.5 189.469 149.484 190.453 150.75 190.453H155.25C156.469 190.453 157.5 189.469 157.5 188.203Z" fill="white"/>
<g filter="url(#filter2_d)">
<rect x="221" y="160" width="69" height="40" rx="20" fill="#30A0F5"/>
</g>
<path d="M263.75 169.5H247.25C245.984 169.5 245 170.531 245 171.75V188.25C245 189.516 245.984 190.5 247.25 190.5H263.75C264.969 190.5 266 189.516 266 188.25V171.75C266 170.531 264.969 169.5 263.75 169.5Z" fill="white"/>
<defs>
<filter id="filter0_d" x="0" y="0" width="388" height="248" filterUnits="userSpaceOnUse" color-interpolation-filters="sRGB">
<feFlood flood-opacity="0" result="BackgroundImageFix"/>
<feColorMatrix in="SourceAlpha" type="matrix" values="0 0 0 0 0 0 0 0 0 0 0 0 0 0 0 0 0 0 127 0"/>
<feMorphology radius="8" operator="dilate" in="SourceAlpha" result="effect1_dropShadow"/>
<feOffset dy="4"/>
<feGaussianBlur stdDeviation="8"/>
<feColorMatrix type="matrix" values="0 0 0 0 0 0 0 0 0 0 0 0 0 0 0 0 0 0 0.25 0"/>
<feBlend mode="normal" in2="BackgroundImageFix" result="effect1_dropShadow"/>
<feBlend mode="normal" in="SourceGraphic" in2="effect1_dropShadow" result="shape"/>
</filter>
<filter id="filter1_d" x="93" y="160" width="108" height="48" filterUnits="userSpaceOnUse" color-interpolation-filters="sRGB">
<feFlood flood-opacity="0" result="BackgroundImageFix"/>
<feColorMatrix in="SourceAlpha" type="matrix" values="0 0 0 0 0 0 0 0 0 0 0 0 0 0 0 0 0 0 127 0"/>
<feOffset dy="4"/>
<feGaussianBlur stdDeviation="2"/>
<feColorMatrix type="matrix" values="0 0 0 0 0 0 0 0 0 0 0 0 0 0 0 0 0 0 0.25 0"/>
<feBlend mode="normal" in2="BackgroundImageFix" result="effect1_dropShadow"/>
<feBlend mode="normal" in="SourceGraphic" in2="effect1_dropShadow" result="shape"/>
</filter>
<filter id="filter2_d" x="217" y="160" width="77" height="48" filterUnits="userSpaceOnUse" color-interpolation-filters="sRGB">
<feFlood flood-opacity="0" result="BackgroundImageFix"/>
<feColorMatrix in="SourceAlpha" type="matrix" values="0 0 0 0 0 0 0 0 0 0 0 0 0 0 0 0 0 0 127 0"/>
<feOffset dy="4"/>
<feGaussianBlur stdDeviation="2"/>
<feColorMatrix type="matrix" values="0 0 0 0 0 0 0 0 0 0 0 0 0 0 0 0 0 0 0.25 0"/>
<feBlend mode="normal" in2="BackgroundImageFix" result="effect1_dropShadow"/>
<feBlend mode="normal" in="SourceGraphic" in2="effect1_dropShadow" result="shape"/>
</filter>
</defs>
</svg>
